inDegrees=no
num_controls=7
num_derivatives=13
num_iterations=27
num_multipliers=7
num_parameters=0
num_slacks=7
num_states=26
objective=0.491375
objective_accelerations=0.006563
objective_balance=0.000667
objective_effort=0.007292
objective_height=0.469874
objective_ligament=0.006979
solver_duration=380.168187
status=Solve_Succeeded
success=true
DataType=double
version=3
OpenSimVersion=4.5
endheader
time	/jointset/ground_pelvis/pelvis_tilt/value	/jointset/ground_pelvis/pelvis_tx/value	/jointset/ground_pelvis/pelvis_ty/value	/jointset/hip_l/hip_flexion_l/value	/jointset/hip_l/hip_adduction_l/value	/jointset/hip_l/hip_rotation_l/value	/jointset/back/lumbar_extension/value	/jointset/patellofemoral_l/patellar_flexion_l/value	/jointset/knee_l/knee_flexion_l/value	/jointset/knee_l/knee_adduction_l/value	/jointset/knee_l/knee_rotation_l/value	/jointset/ankle_l/ankle_angle_l/value	/jointset/subtalar_l/subtalar_angle_l/value	/jointset/ground_pelvis/pelvis_tilt/speed	/jointset/ground_pelvis/pelvis_tx/speed	/jointset/ground_pelvis/pelvis_ty/speed	/jointset/hip_l/hip_flexion_l/speed	/jointset/hip_l/hip_adduction_l/speed	/jointset/hip_l/hip_rotation_l/speed	/jointset/back/lumbar_extension/speed	/jointset/patellofemoral_l/patellar_flexion_l/speed	/jointset/knee_l/knee_flexion_l/speed	/jointset/knee_l/knee_adduction_l/speed	/jointset/knee_l/knee_rotation_l/speed	/jointset/ankle_l/ankle_angle_l/speed	/jointset/subtalar_l/subtalar_angle_l/speed	/forceset/tau_hip_flexion_l	/forceset/tau_hip_adduction_l	/forceset/tau_hip_rotation_l	/forceset/tau_knee_flexion_l	/forceset/tau_ankle_angle_l	/forceset/tau_subtalar_angle_l	/forceset/tau_lumbar_extension	lambda_cid13_p0	lambda_cid13_p1	lambda_cid13_p2	lambda_cid13_p3	lambda_cid13_p4	lambda_cid13_p5	lambda_cid14_p0	/jointset/ground_pelvis/pelvis_tilt/accel	/jointset/ground_pelvis/pelvis_tx/accel	/jointset/ground_pelvis/pelvis_ty/accel	/jointset/hip_l/hip_flexion_l/accel	/jointset/hip_l/hip_adduction_l/accel	/jointset/hip_l/hip_rotation_l/accel	/jointset/back/lumbar_extension/accel	/jointset/patellofemoral_l/patellar_flexion_l/accel	/jointset/knee_l/knee_flexion_l/accel	/jointset/knee_l/knee_adduction_l/accel	/jointset/knee_l/knee_rotation_l/accel	/jointset/ankle_l/ankle_angle_l/accel	/jointset/subtalar_l/subtalar_angle_l/accel	gamma_cid13_p0	gamma_cid13_p1	gamma_cid13_p2	gamma_cid13_p3	gamma_cid13_p4	gamma_cid13_p5	gamma_cid14_p0
0.5	0.134556133225836	0.1487955271976801	0.9055575116651815	0.05765433264239542	-0.2796775626767419	-0.2066705359898278	-0.2101949506142045	0.3125992607878965	0.3125992607878743	0.0426074239722867	-0.09512749696428489	0.2291117385253025	0.2385455290098529	0.1312985441235414	0.1155098031924188	-0.02061927960756892	-0.1537366913708167	-0.02441808711233661	-0.03810830864220516	0.069912217962949	0.2568518730669379	0.2568518730669308	0.04911913046237457	-0.03924236081213812	0.2976440175588538	0.1151088186635575	0.06664088355662312	0.06185500251312857	0.003402355942946982	-0.1474782865507138	-0.00370512837907123	-0.03701217937384242	-0.001748836064616719	-32.81012620367001	22.97887109868351	-5.269088524704263	11.98907666293641	-461.8312340739297	-31.31172017448442	-22.69577626931494	-0.1276405158453706	-0.2584532925351507	0.005712097127600517	0.2383564073750979	0.05936016352834253	-0.04499650300439297	0.2620378515761277	-0.4259025651911518	-0.4259025651911508	0.03334752531002746	0.0295321025408383	-0.5493549123308997	-0.1251249676977574	3.016553578114449e-09	-1.303907164113961e-08	2.518178746180035e-08	-1.093919015626927e-09	3.608478132289069e-09	-3.849188474060385e-08	-2.692570690502848e-10
0.51	0.135862367570949	0.1499377365049645	0.9053516422614842	0.05612907625759541	-0.2799187996181893	-0.2070536766589456	-0.2094828318090312	0.3151461847726409	0.3151461847726149	0.0431000657112686	-0.09551828616348408	0.232060538733194	0.2396901969654255	0.1299141761791574	0.1129351084302613	-0.02054921255393824	-0.1513040562115864	-0.02382243743541752	-0.03852411734503835	0.07249766206701622	0.2524879206394963	0.2524879206394922	0.04940713600533097	-0.03891277578049718	0.292093427914616	0.1138178541286615	0.06789531382039925	0.06198988819665682	0.003377324745390287	-0.1490485725103952	-0.003524509506203723	-0.03669351552600892	-0.002621811446658395	-32.76467374596432	22.932566547519	-5.37598694943956	11.71467603857185	-462.0516907602905	-31.38486389374109	-22.68403218399422	-0.1489566990822148	-0.2565202783052818	0.008463027634857347	0.2472970823460731	0.06069199796554799	-0.04052061150030811	0.2547155398387316	-0.4483920202338261	-0.4483920202330056	0.02621611549211399	0.03508125850078104	-0.5613004061472827	-0.1321210545694909	3.344547663240669e-09	-1.387667639613652e-08	2.697074098036496e-08	-1.233231294580413e-09	3.661751459146066e-09	-4.157086677502107e-08	-1.964754636209622e-10
0.52	0.1371537338835206	0.1510542903225792	0.9051466353319557	0.05462846222679752	-0.2801538751372359	-0.2074411049266048	-0.2087452749928248	0.3176481191453769	0.3176481191453374	0.04359552531500053	-0.0959056976013372	0.2349531551615057	0.240821747504012	0.1283249376208847	0.1103787052584839	-0.02044678477384799	-0.148808220566331	-0.02318580263083146	-0.03896582835096599	0.0749998201717048	0.2478539506635357	0.2478539506635347	0.04968270341641799	-0.03856680854785467	0.2864072616432893	0.1124853352663967	0.06914974408414871	0.06212477388018995	0.003352293547614165	-0.1506188584700827	-0.003343890633335854	-0.03637485167816587	-0.003494786828758544	-32.72132594182644	22.88530012275712	-5.481212410053468	11.4543274955672	-462.3048601346594	-31.46976303467666	-22.67203657775048	-0.1686146386227889	-0.2547949744594588	0.01218424241954381	0.2509965045802094	0.06755718906178648	-0.05017696362326046	0.2453806517006376	-0.4799060748949687	-0.4799060748949581	0.0308598989362338	0.03280854274111014	-0.5764702377490413	-0.1334358331716554	3.662630474780629e-09	-1.45508124727172e-08	2.860021920478932e-08	-1.358439637284014e-09	3.671438289726684e-09	-4.434183068765029e-08	-1.101369398571143e-10
0.53	0.1384281708308962	0.1521453872908034	0.9049428099998431	0.05315313365440071	-0.2803824038984952	-0.2078329992292975	-0.2079830968020163	0.3201024062825427	0.3201024062825611	0.04409361869334746	-0.09628951459464399	0.2377882644590167	0.2419397449448844	0.1265280819699297	0.1078453113620144	-0.02031309647645878	-0.1462478346212824	-0.02251409722145142	-0.03941368948714216	0.07742220337674864	0.2429605729613115	0.2429605729613087	0.04993134170823089	-0.03819119724645399	0.2805946994649792	0.1111069490452462	0.07043873617208787	0.06219815659218897	0.003339566029793615	-0.1522812223527701	-0.002969193170085569	-0.03605588555068901	-0.004393817600643408	-32.61331248655097	22.83591649313912	-5.596764924811309	11.14076881449416	-462.5224971751142	-31.56306383674624	-22.65983509111023	-0.190375865693447	-0.2519184364455276	0.01473963459056807	0.2600092461878059	0.06784939118005077	-0.04219344257604288	0.2386249635908726	-0.5004891764771039	-0.5004891764769632	0.02117268566643384	0.0407509203958646	-0.5866339104218677	-0.1411219050846934	3.987539615925763e-09	-1.521504100263398e-08	3.00213739059288e-08	-1.481445286183506e-09	3.666795966143047e-09	-4.686156513704491e-08	-1.430707465342602e-11
0.54	0.1396836082542602	0.1532112889522237	0.9047404772529446	0.05170369886276861	-0.2806040411708035	-0.2082293926941433	-0.207197103217434	0.3225064725309827	0.3225064725310275	0.04459405983286373	-0.0966694127755947	0.2405646511942321	0.2430437421458456	0.1245250328245156	0.1053396438977169	-0.02014826773107729	-0.1436294644073434	-0.02180750483992407	-0.03986566078176063	0.07976289892912709	0.2378097729154578	0.2378097729154537	0.05015225565453332	-0.03778304608280172	0.2746627491846682	0.1096852872841684	0.07172772825988513	0.06227153930420175	0.003326838511692221	-0.1539435862355173	-0.002594495706848355	-0.03573691942319714	-0.005292848372675424	-32.50751862284527	22.78548301550238	-5.710506978149197	10.84116414400086	-462.7758299184682	-31.66940617779018	-22.64747823893324	-0.2098533375143302	-0.2492496880253288	0.01841233201802355	0.262593358358354	0.0745345834912865	-0.0509989953117035	0.2290431211677715	-0.5313905436208896	-0.5313905436208078	0.02531502983420306	0.03931651519138876	-0.600347858149524	-0.1420909411572293	4.320001291953217e-09	-1.586830799156093e-08	3.121204300683821e-08	-1.602013912150794e-09	3.646300110292575e-09	-4.910334358456295e-08	9.20238491645537e-11
0.55	0.1409179677715086	0.1542522852747179	0.9045399431971965	0.05028076230523334	-0.2808184509521268	-0.2086303031355126	-0.2063880878082776	0.3248577884718714	0.3248577884719133	0.04509654909571652	-0.09704506113542043	0.243281155018792	0.2441333031092794	0.1223120691915375	0.1028655246691399	-0.01995361910707785	-0.1409480218804969	-0.02106853954550977	-0.04031890698059976	0.08202737363780438	0.2324126712852404	0.2324126712852411	0.05034194163963557	-0.03734297431401876	0.2686208596222216	0.1082209823293091	0.07303789998527425	0.06229254569736782	0.003324662677674833	-0.155670507028456	-0.002058323975532465	-0.03541984110623161	-0.006209083146191146	-32.34736912694588	22.73373792595327	-5.832476264526235	10.49651439432562	-462.9894278717571	-31.7796201417037	-22.63501009943624	-0.2322373341754543	-0.2456077641789756	0.02073050137824986	0.2723943114131159	0.07445804577601481	-0.04286382216867386	0.2232282566797884	-0.5499815995321103	-0.549981599531016	0.01524868609439192	0.04690516967728549	-0.60868280362689	-0.1494901420607809	4.642237394316908e-09	-1.627575102312922e-08	3.199653321954643e-08	-1.697112634733739e-09	3.666920649494373e-09	-5.062904248960741e-08	2.134034471559014e-10
0.5600000000000001	0.1421291537607995	0.1552687174601471	0.9043415035024477	0.0488849350952403	-0.2810252949718358	-0.2090358213168714	-0.2055568119298582	0.3271539110711054	0.3271539110711099	0.04560082587905798	-0.09741619824514476	0.2459367252880574	0.2452080430492827	0.1198903272391305	0.1004268164847414	-0.01972939553124902	-0.1382075948909668	-0.02029435251672864	-0.04078720877937788	0.08421499278491243	0.2267711045826344	0.2267711045826391	0.05050975975456951	-0.03688079606701459	0.2624760381263836	0.1067210825980208	0.07434807171039494	0.06231355209056092	0.003322486843445176	-0.1573974278215189	-0.001522152244252805	-0.03510276278924409	-0.007125317919942528	-32.18956016777329	22.68086540325111	-5.952509910028332	10.16565221010963	-463.2418246454804	-31.90411762793498	-22.62248437640764	-0.251609001399888	-0.2421674791897989	0.02432732238392085	0.2743902508951232	0.08157893036468078	-0.05401011529949779	0.2136720088541103	-0.5802835580986749	-0.5802835580987507	0.02094145580058861	0.04373781083559388	-0.6209342448280545	-0.1492098964431147	4.952202808284087e-09	-1.638820530586711e-08	3.229360876641324e-08	-1.761647473255474e-09	3.736880862758891e-09	-5.129544594368358e-08	3.528414541552899e-10
0.5700000000000001	0.1433150603812705	0.1562609493397956	0.9041454479265587	0.04751683913571388	-0.2812242335150733	-0.2094460649698781	-0.2047040163360911	0.3293924443311372	0.3293924443312212	0.04610664939340259	-0.097782588711329	0.2485303639462537	0.2462676027733767	0.1172560889400364	0.09802646792667295	-0.01947705169503515	-0.1354018037906342	-0.01948759690548438	-0.04126412832292406	0.0863320733371454	0.2208968221559021	0.2208968221559066	0.05065144443650874	-0.0363939205544028	0.2562367963127424	0.1051857606516471	0.07566604264969987	0.06229121135380339	0.003329564176147748	-0.1591607918400259	-0.000857405902325041	-0.03479018090758253	-0.008049998886682857	-31.98786495609952	22.62771249806266	-6.078725175171718	9.798326986443664	-463.4502910271829	-32.0271982586022	-22.60994813342512	-0.2745665753302254	-0.2379326318810214	0.02638886228862608	0.2851434549307136	0.0810813262100379	-0.0449283835207739	0.2089181842433641	-0.5968094626038243	-0.596809462603348	0.01025880173361156	0.05167393728364519	-0.6276535145021159	-0.1564600394539559	5.286192207788739e-09	-1.685216444468617e-08	3.29107278229271e-08	-1.867214715829205e-09	3.694821366837497e-09	-5.269053414085905e-08	4.884593194755096e-10
